# xmcd
#
# Track frame offsets: 
#        150
#        18251
#        33241
#        54047
#        63933
#        76753
#        87045
#        102910
#        114954
#        124518
#        134981
#        148161
#        161374
#        177599
#        190994
#
# Disc length: 2775 seconds
#
# Revision: 7
# Processed by: cddbd v1.5.2PL0 Copyright (c) Steve Scherf et al.
# Submitted via: ExactAudioCopyFreeDBPlugin 1.0
#
DISCID=bd0ad50f
DTITLE=Various Artist - Truckin' - Country Road Songs
DYEAR=2000
DGENRE=Country
TTITLE0=Ferlin Husky - Convoy
TTITLE1=Ferlin Husky - Hello I'm a truck
TTITLE2=Freddy Fender - Six days on the road
TTITLE3=Ferlin Husky - Truck drivin' sun of a gun
TTITLE4=Ferlin Husky - Freightliner Fever
TTITLE5=Johnny Paycheck - A-11
TTITLE6=Ferkin Husky - Phantom 309
TTITLE7=Ferlin Husky - Me and old CB and a big spiky sexy hedgehog
TTITLE8=Merle Travis - Sixteen Tons
TTITLE9=Ferlin Husky - Looking at the world trough a windshield
TTITLE10=Ferlin Husky - Don't fall asleep at the wheel
TTITLE11=Porter Wagoner - The Caroll county accident
TTITLE12=Ferlin Husky - Truck driver's blues
TTITLE13=Ferlin Husky - The Drunken Driver
TTITLE14=Ferlin Husky - Giddyup Go
EXTD=YEAR: 2000
EXTT0=
EXTT1=
EXTT2=
EXTT3=
EXTT4=
EXTT5=
EXTT6=
EXTT7=
EXTT8=
EXTT9=
EXTT10=
EXTT11=
EXTT12=
EXTT13=
EXTT14=
PLAYORDER=
